<svg width="512" height="512" viewBox="0 0 512 512" xmlns="http://www.w3.org/2000/svg" role="img" aria-labelledby="title desc">
  <title id="title">Square Image Tools Icon</title>
  <desc id="desc">An icon showing a rectangular photo transforming into a polished square with a grid overlay and sparkle.</desc>
  <defs>
    <linearGradient id="bgGradient" x1="0%" y1="0%" x2="100%" y2="100%">
      <stop offset="0%" stop-color="#eef2ff" />
      <stop offset="100%" stop-color="#dde8ff" />
    </linearGradient>
    <linearGradient id="frameGradient" x1="0%" y1="0%" x2="100%" y2="100%">
      <stop offset="0%" stop-color="#7f8cff" />
      <stop offset="100%" stop-color="#9b7bff" />
    </linearGradient>
    <linearGradient id="squareGradient" x1="20%" y1="20%" x2="80%" y2="80%">
      <stop offset="0%" stop-color="#7ad0ff" />
      <stop offset="100%" stop-color="#5b89ff" />
    </linearGradient>
  </defs>
  <rect x="56" y="56" width="400" height="400" rx="96" fill="url(#bgGradient)" />
  <rect x="120" y="116" width="272" height="212" rx="48" fill="none" stroke="url(#frameGradient)" stroke-width="28" stroke-linejoin="round" opacity="0.85" />
  <rect x="148" y="164" width="240" height="240" rx="36" fill="url(#squareGradient)" />
  <g opacity="0.35" stroke="#ffffff" stroke-width="6">
    <line x1="148" y1="244" x2="388" y2="244" />
    <line x1="148" y1="324" x2="388" y2="324" />
    <line x1="228" y1="164" x2="228" y2="404" />
    <line x1="308" y1="164" x2="308" y2="404" />
  </g>
  <path d="M366 164c0 28-22 50-50 50s-50-22-50-50" fill="none" stroke="#ffffff" stroke-width="12" stroke-linecap="round" opacity="0.55" />
  <path d="M364 116l10-18 10 18 18 10-18 10-10 18-10-18-18-10z" fill="#f3f5ff" stroke="#cfd7ff" stroke-width="4" />
</svg>
